<?xml version="1.0" encoding="utf-8"?>
<!-- Generator: Adobe Illustrator 24.3.0, SVG Export Plug-In . SVG Version: 6.00 Build 0)  -->
<svg version="1.1" id="Capa_1" xmlns="http://www.w3.org/2000/svg" xmlns:xlink="http://www.w3.org/1999/xlink" x="0px" y="0px"
	 viewBox="0 0 643.46 674.65" style="enable-background:new 0 0 643.46 674.65;" xml:space="preserve">
<style type="text/css">
	.st0{fill:url(#SVGID_1_);}
	.st1{fill:url(#SVGID_2_);}
	.st2{fill:url(#SVGID_3_);}
	.st3{fill:url(#SVGID_4_);}
	.st4{fill:url(#SVGID_5_);}
	.st5{fill:url(#SVGID_6_);}
	.st6{opacity:0.5;fill:url(#SVGID_7_);enable-background:new    ;}
	.st7{fill:#F6E248;fill-opacity:0.96;}
	.st8{fill:#686868;}
	.st9{fill:#C5428A;}
	.st10{fill:#FFFFFF;}
	.st11{fill:#FFFFFF;fill-opacity:0.62;}
	.st12{fill:#F6E248;fill-opacity:0.87;}
	.st13{opacity:0.2;fill:url(#SVGID_8_);stroke:#000000;enable-background:new    ;}
	.st14{opacity:0.2;fill:url(#SVGID_9_);stroke:#000000;enable-background:new    ;}
	.st15{opacity:0.2;fill:url(#SVGID_10_);stroke:#000000;enable-background:new    ;}
	.st16{opacity:0.2;fill:url(#SVGID_11_);stroke:#000000;enable-background:new    ;}
	.st17{opacity:0.2;fill:url(#SVGID_12_);stroke:#000000;enable-background:new    ;}
	.st18{opacity:0.2;fill:url(#SVGID_13_);stroke:#000000;enable-background:new    ;}
	.st19{opacity:0.2;fill:url(#SVGID_14_);stroke:#000000;enable-background:new    ;}
	.st20{opacity:0.2;fill:url(#SVGID_15_);stroke:#000000;enable-background:new    ;}
	.st21{opacity:0.2;fill:url(#SVGID_16_);stroke:#000000;enable-background:new    ;}
	.st22{opacity:0.2;fill:url(#SVGID_17_);stroke:#000000;enable-background:new    ;}
	.st23{opacity:0.2;fill:url(#SVGID_18_);stroke:#000000;enable-background:new    ;}
	.st24{opacity:0.2;fill:url(#SVGID_19_);stroke:#000000;enable-background:new    ;}
	.st25{fill:none;stroke:#000000;stroke-linejoin:round;}
	.st26{opacity:0.6;fill:url(#SVGID_20_);enable-background:new    ;}
	.st27{fill:#C8B4B4;}
	.st28{fill:#CBACAC;}
	.st29{fill:url(#SVGID_21_);}
	.st30{fill:url(#SVGID_22_);}
	.st31{opacity:0.8;}
	.st32{fill:url(#SVGID_23_);}
	.st33{fill:url(#SVGID_24_);}
	.st34{fill:url(#SVGID_25_);}
	.st35{fill:url(#SVGID_26_);}
	.st36{fill:url(#SVGID_27_);}
	.st37{fill:url(#SVGID_28_);}
	.st38{fill:url(#SVGID_29_);}
	.st39{fill:url(#SVGID_30_);}
	.st40{fill:url(#SVGID_31_);}
	.st41{fill:url(#SVGID_32_);}
	.st42{fill:url(#SVGID_33_);}
	.st43{fill:url(#SVGID_34_);}
	.st44{fill:url(#SVGID_35_);}
	.st45{fill:url(#SVGID_36_);}
	.st46{fill:url(#SVGID_37_);}
	.st47{fill:url(#SVGID_38_);}
	.st48{fill:url(#SVGID_39_);}
	.st49{fill:url(#SVGID_40_);}
	.st50{fill:url(#SVGID_41_);}
	.st51{fill:url(#SVGID_42_);}
	.st52{fill:url(#SVGID_43_);}
	.st53{fill:url(#SVGID_44_);}
	.st54{fill:url(#SVGID_45_);}
	.st55{fill:url(#SVGID_46_);}
	.st56{fill:url(#SVGID_47_);}
	.st57{fill:url(#SVGID_48_);}
</style>
<linearGradient id="SVGID_1_" gradientUnits="userSpaceOnUse" x1="177.579" y1="55.4341" x2="318.369" y2="122.8871" gradientTransform="matrix(0.9178 0.3971 0.3971 -0.9178 -77.0227 492.6407)">
	<stop  offset="0.0559" style="stop-color:#A53C2A;stop-opacity:0.9844"/>
	<stop  offset="1" style="stop-color:#FA6A51;stop-opacity:0"/>
</linearGradient>
<path class="st0" d="M256.19,372.59l3.67,1.59c4.05,1.75,5.92,6.46,4.17,10.52L153.24,640.76c-1.75,4.05-6.46,5.92-10.52,4.17
	l-3.67-1.59c-4.05-1.75-5.92-6.46-4.17-10.52l110.79-256.06C247.42,372.71,252.13,370.84,256.19,372.59z"/>
<linearGradient id="SVGID_2_" gradientUnits="userSpaceOnUse" x1="139.6047" y1="61.9058" x2="280.3957" y2="129.3588" gradientTransform="matrix(0.9305 -0.3664 -0.3664 -0.9305 134.4946 687.1296)">
	<stop  offset="0.0559" style="stop-color:#A53C2A"/>
	<stop  offset="1" style="stop-color:#FA6A51;stop-opacity:0"/>
</linearGradient>
<path class="st1" d="M248.15,374.81l3.72-1.47c4.11-1.62,8.76,0.4,10.37,4.51l102.21,259.6c1.62,4.11-0.4,8.76-4.51,10.37
	l-3.72,1.47c-4.11,1.62-8.76-0.4-10.37-4.51l-102.21-259.6C242.02,381.08,244.04,376.43,248.15,374.81z"/>
<linearGradient id="SVGID_3_" gradientUnits="userSpaceOnUse" x1="155.2453" y1="52.0331" x2="296.0363" y2="119.4861" gradientTransform="matrix(1 8.506737e-03 8.506737e-03 -1 13.3764 614.5616)">
	<stop  offset="0.0559" style="stop-color:#A53C2A"/>
	<stop  offset="1" style="stop-color:#FA6A51;stop-opacity:0"/>
</linearGradient>
<path class="st2" d="M251.21,377.49l4,0.03c4.42,0.04,7.97,3.65,7.93,8.07l-2.37,278.99c-0.04,4.42-3.65,7.97-8.07,7.93l-4-0.03
	c-4.42-0.04-7.97-3.65-7.93-8.07l2.37-278.99C243.18,381,246.79,377.45,251.21,377.49z"/>
<linearGradient id="SVGID_4_" gradientUnits="userSpaceOnUse" x1="97.0998" y1="554.5602" x2="354.9748" y2="49.4932" gradientTransform="matrix(1 0 0 -1 15.7323 616.6772)">
	<stop  offset="0" style="stop-color:#B9A433;stop-opacity:0.96"/>
	<stop  offset="0.654" style="stop-color:#B76F62;stop-opacity:0.9844"/>
	<stop  offset="1" style="stop-color:#8F2B62"/>
</linearGradient>
<ellipse class="st3" cx="244.2" cy="319.42" rx="241.5" ry="103"/>
<linearGradient id="SVGID_5_" gradientUnits="userSpaceOnUse" x1="97.0998" y1="573.5602" x2="354.9748" y2="68.4932" gradientTransform="matrix(1 0 0 -1 15.7323 616.6772)">
	<stop  offset="0" style="stop-color:#F6E248;stop-opacity:0.96"/>
	<stop  offset="0.654" style="stop-color:#DC8071;stop-opacity:0.9844"/>
	<stop  offset="1" style="stop-color:#C5428A"/>
</linearGradient>
<ellipse class="st4" cx="244.2" cy="300.42" rx="241.5" ry="103"/>
<linearGradient id="SVGID_6_" gradientUnits="userSpaceOnUse" x1="72.0605" y1="553.5084" x2="227.6201" y2="507.4894" gradientTransform="matrix(1 0 0 -1 15.7323 616.6772)">
	<stop  offset="0" style="stop-color:#9FACD2"/>
	<stop  offset="1" style="stop-color:#48499F;stop-opacity:0.7"/>
</linearGradient>
<path class="st5" d="M78.16,136.75c0-25.4,17.69-56.55,39.51-69.57l94.54-56.39c21.82-13.01,39.51-2.97,39.51,22.43v33.96
	c0,8.66-3.53,18.91-9.52,27.63l-9.46,13.77c-0.04,0.05-0.06,0.11-0.06,0.16c0,0.19,0.24,0.08,0.27-0.13l2.65-17.54
	c0.18-1.22-0.58-1.77-1.55-1.12l-30.28,20.46l-86.34,50.91c-21.73,12.81-39.27,2.73-39.27-22.57V136.75z"/>
<linearGradient id="SVGID_7_" gradientUnits="userSpaceOnUse" x1="-22.1808" y1="643.5434" x2="181.3992" y2="558.3896" gradientTransform="matrix(0.8588 -0.5123 0 -1 90.8735 724.5635)">
	<stop  offset="0" style="stop-color:#48499F;stop-opacity:0.63"/>
	<stop  offset="1" style="stop-color:#6675B5;stop-opacity:0.57"/>
</linearGradient>
<path class="st6" d="M111.21,64.23l94.54-56.39c21.82-13.02,39.51-2.97,39.51,22.43V32c0,25.41-17.69,56.55-39.51,69.57
	l-94.54,56.39c-21.82,13.02-39.51,2.97-39.51-22.43v-1.74C71.7,108.39,89.39,77.24,111.21,64.23z"/>
<path class="st7" d="M93.93,92.17l40.39-24.09c1.38-0.83,2.5-0.19,2.5,1.42v0c0,1.61-1.12,3.59-2.5,4.41L93.93,98
	c-1.38,0.83-2.5,0.19-2.5-1.42v0C91.42,94.97,92.55,93,93.93,92.17z"/>
<path class="st8" d="M93.93,108.42l116.86-69.71c1.38-0.83,2.5-0.19,2.5,1.42v0c0,1.61-1.12,3.59-2.5,4.41L93.93,114.25
	c-1.38,0.83-2.5,0.19-2.5-1.42v0C91.42,111.22,92.55,109.24,93.93,108.42z"/>
<path class="st9" d="M93.93,144.25l79.15-47.21c1.38-0.83,2.5-0.19,2.5,1.42v0c0,1.61-1.12,3.59-2.5,4.41l-79.15,47.21
	c-1.38,0.83-2.5,0.19-2.5-1.42l0,0C91.42,147.04,92.55,145.07,93.93,144.25z"/>
<path class="st10" d="M93.93,126.33l81.59-48.67c1.38-0.83,2.5-0.19,2.5,1.42v0c0,1.61-1.12,3.59-2.5,4.41l-81.59,48.67
	c-1.38,0.83-2.5,0.19-2.5-1.42l0,0C91.42,129.13,92.55,127.16,93.93,126.33z"/>
<path class="st11" d="M197.29,82.59l40.04-23.88c1.38-0.83,2.5-0.19,2.5,1.42v0c0,1.61-1.12,3.59-2.5,4.41l-40.04,23.88
	c-1.38,0.83-2.5,0.19-2.5-1.42v0C194.79,85.39,195.91,83.41,197.29,82.59z"/>
<path class="st12" d="M208.12,90.71l18.39-10.97c1.38-0.83,2.5-0.19,2.5,1.42v0c0,1.61-1.12,3.59-2.5,4.41l-18.39,10.97
	c-1.38,0.83-2.5,0.19-2.5-1.42v0C205.61,93.51,206.73,91.54,208.12,90.71z"/>
<linearGradient id="SVGID_8_" gradientUnits="userSpaceOnUse" x1="79.2598" y1="233.5434" x2="369.8631" y2="431.6614" gradientTransform="matrix(1 0 0 -1 15.7323 616.6772)">
	<stop  offset="0" style="stop-color:#48499F"/>
	<stop  offset="1" style="stop-color:#F93D3D;stop-opacity:0.88"/>
</linearGradient>
<path class="st13" d="M190.93,207.59L190.93,207.59l52.05-27.18l0.01,0l0.01-0.01l16.27-9.24c0.7-0.39,1.52-0.73,2.45-0.99
	l1.17-0.33c1.26-0.36,2.23-0.9,2.8-1.56c1.89-2.2,8.24-2.26,11.17-0.11l3.78,2.78l0.01,0l0.01,0l7.51,5.18l0.01,0.01l0.01,0.01
	l21.18,13.06l0,0l40.93,25.57l0.01,0.01l44.16,29.1l0,0l24.92,16.14l0.01,0l13.16,8.33l3.79,2.79c3.62,2.66,2.33,6.06-2.85,7.52
	c-0.9,0.26-1.72,0.57-2.44,0.94l-61.91,31.97l-62.93,32.5l0,0l-43.03,22.68c-0.1,0.05-0.19,0.11-0.26,0.18
	c-0.24,0.22-0.88,0.22-1.23,0.01l-10.42-6.47l-0.01,0l-24.45-15.63l0,0l-62.06-40.09l0,0l-45.16-28.67l0,0l-26.46-16.48
	c-0.2-0.13-0.38-0.27-0.51-0.41c-0.59-0.65-0.38-1.37,0.55-1.84L190.93,207.59z"/>
<linearGradient id="SVGID_9_" gradientUnits="userSpaceOnUse" x1="70.9391" y1="237.1566" x2="361.5419" y2="435.2747" gradientTransform="matrix(1 0 0 -1 15.7323 616.6772)">
	<stop  offset="0" style="stop-color:#48499F"/>
	<stop  offset="1" style="stop-color:#F93D3D;stop-opacity:0.88"/>
</linearGradient>
<path class="st14" d="M182.61,203.98L182.61,203.98l52.05-27.18l0.01,0l0.01,0l16.28-9.24c0.7-0.39,1.52-0.73,2.44-0.99l1.17-0.33
	c1.26-0.36,2.23-0.9,2.8-1.56c1.9-2.2,8.24-2.26,11.17-0.11l3.78,2.78l0.01,0.01l0.01,0l7.51,5.18l0.01,0.01l0.01,0.01l21.18,13.06
	l0,0l40.93,25.57l0.01,0.01l44.16,29.1l0,0l24.92,16.14l0.01,0l13.16,8.33l3.79,2.79c3.62,2.66,2.33,6.06-2.85,7.52
	c-0.9,0.26-1.72,0.57-2.44,0.94l-61.91,31.97l-62.93,32.49l0,0l-43.03,22.68c-0.1,0.05-0.19,0.11-0.26,0.18
	c-0.24,0.22-0.88,0.23-1.23,0.01l-10.42-6.48l-0.01,0l-24.45-15.63l0,0l-62.06-40.09l0,0l-45.16-28.67l0,0L84.8,256
	c-0.2-0.13-0.38-0.27-0.51-0.41c-0.59-0.65-0.38-1.37,0.54-1.84L182.61,203.98z"/>
<linearGradient id="SVGID_10_" gradientUnits="userSpaceOnUse" x1="66.8075" y1="234.3408" x2="357.4108" y2="432.4588" gradientTransform="matrix(1 0 0 -1 15.7323 616.6772)">
	<stop  offset="0" style="stop-color:#48499F"/>
	<stop  offset="1" style="stop-color:#F93D3D;stop-opacity:0.88"/>
</linearGradient>
<path class="st15" d="M178.48,206.79L178.48,206.79l52.05-27.18l0.01,0l0.01,0l16.28-9.24c0.69-0.4,1.52-0.73,2.44-0.99l1.17-0.33
	c1.26-0.36,2.23-0.9,2.8-1.56c1.89-2.2,8.23-2.26,11.17-0.11l3.78,2.78l0.01,0l0.01,0l7.51,5.18l0.01,0.01l0.01,0.01l21.18,13.06
	l0,0l40.93,25.57l0.01,0.01l44.16,29.11l0,0l24.92,16.14l0.01,0l13.16,8.33l3.79,2.79c3.62,2.66,2.33,6.06-2.85,7.52
	c-0.9,0.26-1.72,0.57-2.44,0.94l-61.91,31.97l-62.93,32.49l0,0l-43.03,22.68c-0.1,0.05-0.19,0.11-0.26,0.18
	c-0.24,0.22-0.88,0.23-1.23,0.01l-10.42-6.47l-0.01,0l-24.45-15.63l0,0l-62.06-40.09l0,0l-45.16-28.67l0,0l-26.46-16.48
	c-0.2-0.13-0.38-0.26-0.51-0.41c-0.59-0.65-0.38-1.37,0.54-1.84L178.48,206.79z"/>
<linearGradient id="SVGID_11_" gradientUnits="userSpaceOnUse" x1="65.7179" y1="232.388" x2="356.3216" y2="430.506" gradientTransform="matrix(1 0 0 -1 15.7323 616.6772)">
	<stop  offset="0" style="stop-color:#48499F"/>
	<stop  offset="1" style="stop-color:#F93D3D;stop-opacity:0.88"/>
</linearGradient>
<path class="st16" d="M177.39,208.75L177.39,208.75l52.05-27.18l0.01,0l0.01,0l16.28-9.24c0.69-0.4,1.52-0.73,2.44-0.99l1.17-0.33
	c1.26-0.36,2.23-0.9,2.8-1.56c1.9-2.2,8.23-2.26,11.17-0.11l3.78,2.78l0.01,0.01l0.01,0l7.51,5.18l0.01,0.01l0.01,0.01l21.18,13.06
	l0,0l40.93,25.57l0.01,0.01l44.16,29.11l0,0l24.92,16.14l0,0l13.16,8.33l3.79,2.79c3.62,2.66,2.33,6.06-2.85,7.52
	c-0.9,0.26-1.72,0.57-2.44,0.94l-61.91,31.97l-62.93,32.49l0,0l-43.03,22.68c-0.1,0.05-0.19,0.11-0.26,0.18
	c-0.24,0.22-0.88,0.23-1.23,0.01l-10.42-6.47l-0.01,0l-24.45-15.63l0,0l-62.06-40.09l0,0l-45.16-28.67l0,0l-26.47-16.48
	c-0.2-0.13-0.38-0.26-0.51-0.41c-0.59-0.65-0.38-1.37,0.54-1.84L177.39,208.75z"/>
<linearGradient id="SVGID_12_" gradientUnits="userSpaceOnUse" x1="78.4987" y1="236.7624" x2="369.1021" y2="434.8804" gradientTransform="matrix(1 0 0 -1 15.7323 616.6772)">
	<stop  offset="0" style="stop-color:#48499F"/>
	<stop  offset="1" style="stop-color:#F93D3D;stop-opacity:0.88"/>
</linearGradient>
<path class="st17" d="M190.17,204.37L190.17,204.37l52.05-27.18l0.01,0l0.01,0l16.27-9.24c0.7-0.39,1.52-0.73,2.44-0.99l1.17-0.33
	c1.26-0.36,2.23-0.9,2.8-1.56c1.89-2.2,8.23-2.26,11.17-0.11l3.78,2.78l0.01,0l0.01,0l7.51,5.18l0.01,0.01l0.01,0.01L308.6,186l0,0
	l40.93,25.57l0.01,0.01l44.16,29.1l0,0l24.92,16.14l0,0l13.16,8.33l3.79,2.79c3.62,2.66,2.33,6.06-2.85,7.52
	c-0.9,0.26-1.72,0.57-2.44,0.94l-61.91,31.97l-62.93,32.49l0,0l-43.03,22.68c-0.1,0.05-0.19,0.11-0.26,0.18
	c-0.24,0.22-0.88,0.23-1.23,0.01l-10.42-6.47l-0.01,0l-24.45-15.63l0,0l-62.06-40.09l0,0l-45.16-28.67l0,0L92.36,256.4
	c-0.2-0.13-0.38-0.27-0.51-0.41c-0.59-0.65-0.38-1.37,0.54-1.84L190.17,204.37z"/>
<linearGradient id="SVGID_13_" gradientUnits="userSpaceOnUse" x1="74.0189" y1="244.7116" x2="364.6219" y2="442.8297" gradientTransform="matrix(1 0 0 -1 15.7323 616.6772)">
	<stop  offset="0" style="stop-color:#48499F"/>
	<stop  offset="1" style="stop-color:#F93D3D;stop-opacity:0.88"/>
</linearGradient>
<path class="st18" d="M185.69,196.42L185.69,196.42l52.05-27.18l0.01,0l0.01,0l16.28-9.24c0.7-0.4,1.52-0.73,2.44-0.99l1.17-0.33
	c1.26-0.36,2.23-0.9,2.8-1.56c1.9-2.2,8.24-2.26,11.17-0.11l3.78,2.78l0.01,0l0.01,0l7.51,5.18l0.01,0.01l0.01,0.01l21.18,13.06l0,0
	l40.93,25.57l0.01,0.01l44.16,29.1l0,0l24.92,16.14l0,0l13.16,8.33l3.79,2.79c3.62,2.66,2.33,6.06-2.85,7.52
	c-0.9,0.26-1.72,0.57-2.44,0.94l-61.91,31.97l-62.93,32.5l0,0l-43.03,22.68c-0.1,0.05-0.19,0.11-0.26,0.18
	c-0.24,0.22-0.88,0.22-1.23,0.01l-10.42-6.47l-0.01,0l-24.45-15.63l0,0l-62.06-40.09l0,0l-45.16-28.67l0,0l-26.47-16.48
	c-0.2-0.13-0.38-0.27-0.51-0.41c-0.59-0.65-0.38-1.37,0.54-1.84L185.69,196.42z"/>
<linearGradient id="SVGID_14_" gradientUnits="userSpaceOnUse" x1="71.3402" y1="249.6743" x2="361.9431" y2="447.7923" gradientTransform="matrix(1 0 0 -1 15.7323 616.6772)">
	<stop  offset="0" style="stop-color:#48499F"/>
	<stop  offset="1" style="stop-color:#F93D3D;stop-opacity:0.88"/>
</linearGradient>
<path class="st19" d="M183.01,191.46L183.01,191.46l52.05-27.18l0.01,0l0.01,0l16.28-9.24c0.69-0.39,1.52-0.73,2.44-0.99l1.17-0.33
	c1.26-0.36,2.23-0.9,2.8-1.56c1.9-2.2,8.24-2.26,11.17-0.11l3.78,2.78l0.01,0l0.01,0l7.51,5.18l0.01,0.01l0.01,0.01l21.18,13.06l0,0
	l40.93,25.57l0.01,0.01l44.16,29.1l0,0l24.92,16.14l0.01,0l13.16,8.33l3.79,2.79c3.62,2.66,2.33,6.06-2.85,7.52
	c-0.9,0.26-1.72,0.57-2.44,0.94l-61.91,31.97l-62.93,32.5l0,0l-43.03,22.68c-0.1,0.05-0.19,0.11-0.26,0.18
	c-0.24,0.22-0.88,0.23-1.23,0.01l-10.42-6.47l-0.01,0l-24.45-15.63l0,0l-62.06-40.09l0,0l-45.16-28.67l0,0L85.2,243.48
	c-0.2-0.13-0.38-0.27-0.51-0.41c-0.59-0.65-0.38-1.37,0.54-1.84L183.01,191.46z"/>
<linearGradient id="SVGID_15_" gradientUnits="userSpaceOnUse" x1="74.6785" y1="237.9038" x2="365.2818" y2="436.0217" gradientTransform="matrix(1 0 0 -1 15.7323 616.6772)">
	<stop  offset="0" style="stop-color:#48499F"/>
	<stop  offset="1" style="stop-color:#F93D3D;stop-opacity:0.88"/>
</linearGradient>
<path class="st20" d="M186.35,203.23L186.35,203.23l52.05-27.18l0.01,0l0.01,0l16.28-9.24c0.69-0.4,1.52-0.73,2.44-0.99l1.17-0.33
	c1.26-0.36,2.23-0.9,2.8-1.56c1.89-2.2,8.23-2.26,11.17-0.11l3.78,2.78l0.01,0l0.01,0l7.51,5.18l0.01,0.01l0.01,0.01l21.18,13.06
	l0,0l40.93,25.57l0.01,0.01l44.16,29.1l0,0l24.92,16.14l0.01,0l13.16,8.33l3.79,2.79c3.62,2.66,2.33,6.06-2.85,7.52
	c-0.9,0.25-1.72,0.57-2.44,0.94l-61.91,31.97l-62.93,32.49l0,0l-43.03,22.68c-0.1,0.05-0.19,0.11-0.26,0.18
	c-0.24,0.22-0.88,0.23-1.23,0.01l-10.42-6.47l-0.01,0l-24.45-15.63l0,0l-62.06-40.09l0,0l-45.16-28.67l0,0l-26.46-16.48
	c-0.2-0.13-0.38-0.27-0.51-0.41c-0.59-0.65-0.38-1.37,0.54-1.84L186.35,203.23z"/>
<linearGradient id="SVGID_16_" gradientUnits="userSpaceOnUse" x1="72.8234" y1="225.5811" x2="370.1704" y2="424.5991" gradientTransform="matrix(1 0 0 -1 15.7323 616.6772)">
	<stop  offset="0" style="stop-color:#48499F"/>
	<stop  offset="1" style="stop-color:#F93D3D;stop-opacity:0.88"/>
</linearGradient>
<path class="st21" d="M188.72,214.92L188.72,214.92l52.95-27.55l0.01,0l0.01,0l16.57-9.36c0.71-0.4,1.55-0.74,2.49-1.01l1.2-0.34
	c1.26-0.36,2.24-0.9,2.82-1.57c1.96-2.23,8.42-2.28,11.39-0.09l3.67,2.71l0.01,0l0.01,0l7.49,5.19l0.01,0.01l0.01,0.01l21.17,13.07
	l0,0l40.89,25.58l0.01,0.01l44.1,29.13l0,0l24.89,16.15l0.01,0l13.14,8.34l3.67,2.71c3.68,2.72,2.37,6.17-2.91,7.67
	c-0.91,0.26-1.73,0.58-2.45,0.95l-62.98,32.41l-64.01,32.94l0,0l-43.77,22.99c-0.1,0.05-0.19,0.11-0.26,0.18
	c-0.25,0.23-0.91,0.23-1.27,0.01l-10.39-6.46l-0.01,0l-24.42-15.64l0,0l-61.99-40.12l0,0l-45.11-28.69l-0.01,0L89.2,267.65
	c-0.21-0.13-0.38-0.27-0.51-0.42c-0.58-0.65-0.37-1.37,0.56-1.83L188.72,214.92z"/>
<linearGradient id="SVGID_17_" gradientUnits="userSpaceOnUse" x1="68.6612" y1="254.6371" x2="359.2643" y2="452.7551" gradientTransform="matrix(1 0 0 -1 15.7323 616.6772)">
	<stop  offset="0" style="stop-color:#48499F"/>
	<stop  offset="1" style="stop-color:#F93D3D;stop-opacity:0.88"/>
</linearGradient>
<path class="st22" d="M180.33,186.5L180.33,186.5l52.05-27.18l0.01,0l0.01,0l16.28-9.24c0.69-0.39,1.52-0.73,2.44-0.99l1.17-0.33
	c1.26-0.36,2.23-0.9,2.8-1.56c1.9-2.2,8.24-2.26,11.17-0.11l3.78,2.78l0.01,0l0.01,0.01l7.51,5.18l0.01,0.01l0.01,0.01l21.18,13.06
	l0,0l40.93,25.57l0.01,0.01l44.16,29.1l0,0l24.92,16.14l0,0l13.16,8.33l3.79,2.79c3.62,2.66,2.33,6.06-2.85,7.52
	c-0.9,0.25-1.72,0.57-2.44,0.94l-61.91,31.97L295.61,323l0,0l-43.03,22.68c-0.1,0.05-0.19,0.11-0.26,0.18
	c-0.24,0.22-0.88,0.23-1.23,0.01l-10.42-6.47l-0.01,0l-24.45-15.63l0,0l-62.06-40.09l0,0L108.99,255l-0.01,0l-26.46-16.48
	c-0.2-0.13-0.38-0.27-0.51-0.41c-0.59-0.65-0.38-1.37,0.54-1.84L180.33,186.5z"/>
<linearGradient id="SVGID_18_" gradientUnits="userSpaceOnUse" x1="67.9572" y1="260.4789" x2="358.5607" y2="458.5969" gradientTransform="matrix(1 0 0 -1 15.7323 616.6772)">
	<stop  offset="0" style="stop-color:#48499F"/>
	<stop  offset="1" style="stop-color:#F93D3D;stop-opacity:0.88"/>
</linearGradient>
<path class="st23" d="M179.63,180.66L179.63,180.66l52.05-27.18l0.01,0l0.01,0l16.27-9.24c0.69-0.4,1.52-0.73,2.44-0.99l1.17-0.33
	c1.26-0.36,2.23-0.9,2.8-1.56c1.9-2.2,8.24-2.26,11.17-0.11l3.78,2.78l0.01,0l0.01,0l7.51,5.18l0.01,0.01l0.01,0.01l21.18,13.06l0,0
	l40.93,25.57l0.01,0.01l44.16,29.11l0,0l24.92,16.14l0.01,0l13.16,8.33l3.79,2.79c3.62,2.66,2.33,6.06-2.85,7.52
	c-0.9,0.26-1.72,0.57-2.44,0.94l-61.91,31.97l-62.93,32.49l0,0l-43.03,22.68c-0.1,0.05-0.19,0.11-0.26,0.18
	c-0.24,0.22-0.88,0.23-1.23,0.01l-10.42-6.47l-0.01,0l-24.45-15.63l0,0l-62.06-40.09l0,0l-45.16-28.67l0,0l-26.47-16.48
	c-0.2-0.13-0.38-0.26-0.51-0.41c-0.59-0.65-0.38-1.37,0.54-1.84L179.63,180.66z"/>
<linearGradient id="SVGID_19_" gradientUnits="userSpaceOnUse" x1="67.2104" y1="265.3543" x2="357.8141" y2="463.4723" gradientTransform="matrix(1 0 0 -1 15.7323 616.6772)">
	<stop  offset="0" style="stop-color:#48499F"/>
	<stop  offset="1" style="stop-color:#F93D3D;stop-opacity:0.88"/>
</linearGradient>
<path class="st24" d="M178.88,175.78L178.88,175.78l52.05-27.18l0.01,0l0.01,0l16.28-9.24c0.69-0.39,1.52-0.73,2.44-0.99l1.17-0.33
	c1.26-0.36,2.23-0.9,2.8-1.56c1.9-2.2,8.24-2.26,11.17-0.11l3.78,2.78l0.01,0l0.01,0l7.51,5.18l0.01,0.01l0.01,0.01l21.18,13.06l0,0
	l40.93,25.57l0.01,0.01l44.16,29.1l0,0l24.92,16.14l0.01,0l13.16,8.33l3.79,2.79c3.62,2.66,2.33,6.06-2.85,7.52
	c-0.9,0.26-1.72,0.57-2.44,0.94l-61.91,31.97l-62.93,32.49l0,0l-43.03,22.68c-0.1,0.05-0.19,0.11-0.26,0.18
	c-0.24,0.22-0.88,0.23-1.23,0.01l-10.42-6.47l-0.01,0l-24.45-15.63l0,0l-62.06-40.09l0,0l-45.16-28.67l0,0L81.07,227.8
	c-0.2-0.13-0.38-0.27-0.51-0.41c-0.59-0.65-0.38-1.37,0.54-1.84L178.88,175.78z"/>
<path class="st25" d="M78.76,263.77l179.32-92.99c3.92-2.03,10.12-1.75,13.84,0.63l163.8,104.72c3.72,2.38,3.56,5.95-0.36,7.99
	L255.8,377.39"/>
<linearGradient id="SVGID_20_" gradientUnits="userSpaceOnUse" x1="30.6876" y1="242.2332" x2="380.4486" y2="465.7873" gradientTransform="matrix(1 0 0 -1 15.7323 616.6772)">
	<stop  offset="0" style="stop-color:#48499F"/>
	<stop  offset="1" style="stop-color:#F93D3D;stop-opacity:0.88"/>
</linearGradient>
<path class="st26" d="M80.64,264.65c-1.3-0.06-2.35-0.63-2.32-1.26l1.98-43.8c0.03-0.64,0.54-1.24,1.44-1.67l5.26-2.53l13.85-7.38
	l53.78-27.1l64.09-33.64l25.7-13.05c0.95-0.48,2.16-0.82,3.52-0.99c2.49-0.3,5.24,0.01,7.41,0.85l1.11,0.43
	c0.89,0.34,1.69,0.74,2.36,1.19l6.27,4.16l52.07,32.89l103.85,66.62c5.06,3.25,3.66,7.66-3,9.47c-1.13,0.31-2.15,0.7-3.01,1.17
	l-44.38,24.25l-50.69,25.23l-58.96,30.87l-2.03,0.9c-0.68,0.3-1.16,0.69-1.41,1.14c-0.11,0.2-0.17,0.41-0.18,0.62l-0.28,6.17
	l-0.39,8.49l-0.79,17.48l-0.23,4.99l-0.2,4.44c0,0.04-0.01,0.07-0.02,0.11c-0.22,0.57-1.71,0.68-2.48,0.2l-25.31-16.03l-49.09-32.25
	L143,305.01l-60.54-39.85C82.02,264.87,81.35,264.68,80.64,264.65z"/>
<path class="st25" d="M79.82,219.06l-1.01,44.34l176.93,113.12l2-44.29"/>
<path class="st25" d="M257.76,332.22l163.35-84.7c3.92-2.03,4.08-5.61,0.36-7.99L257.99,135.02c-3.71-2.38-9.9-2.66-13.82-0.64
	L79.82,219.06"/>
<g>
	<path class="st27" d="M262.14,155.45l123.43,78.91c2.33,1.49,2.23,3.72-0.23,4.99l-48.87,25.34c-2.45,1.27-6.32,1.1-8.65-0.39
		L204.4,185.4c-2.33-1.49-2.23-3.72,0.23-4.99l48.87-25.34C255.94,153.79,259.82,153.96,262.14,155.45z"/>
</g>
<g>
	<path d="M182.61,199.36l125.25,80.07c1.83,1.17,1.75,2.92-0.18,3.92l0,0c-1.92,1-4.96,0.86-6.79-0.31l-125.25-80.07
		c-1.83-1.17-1.75-2.92,0.18-3.92l0,0C177.74,198.06,180.78,198.2,182.61,199.36z"/>
</g>
<g>
	<path d="M163.17,208.49l125.25,80.07c1.83,1.17,1.75,2.92-0.18,3.92l0,0c-1.92,1-4.96,0.86-6.79-0.31l-125.25-80.07
		c-1.83-1.17-1.75-2.92,0.18-3.92l0,0C158.31,207.19,161.35,207.33,163.17,208.49z"/>
</g>
<g>
	<path d="M191.93,258.85l29.32,18.75c1.83,1.17,1.75,2.92-0.18,3.92l0,0c-1.92,1-4.96,0.86-6.79-0.31l-29.32-18.75
		c-1.83-1.17-1.75-2.92,0.18-3.92l0,0C187.06,257.54,190.1,257.68,191.93,258.85z"/>
</g>
<g>
	<path d="M178.53,267.25l29.32,18.75c1.83,1.17,1.75,2.92-0.18,3.92l0,0c-1.92,1-4.96,0.86-6.79-0.31l-29.32-18.75
		c-1.83-1.17-1.75-2.92,0.18-3.92l0,0C173.67,265.94,176.71,266.08,178.53,267.25z"/>
</g>
<g>
	<path d="M149.19,228.42l22.42,14.34c2.33,1.49,2.23,3.72-0.23,4.99l-13.46,6.98c-2.45,1.27-6.32,1.1-8.65-0.39L126.85,240
		c-2.33-1.49-2.23-3.72,0.23-4.99l13.46-6.98C142.99,226.76,146.86,226.93,149.19,228.42z"/>
</g>
<g>
	<path d="M243.47,290.75l22.42,14.34c2.33,1.49,2.23,3.72-0.23,4.99l-13.46,6.98c-2.45,1.27-6.32,1.1-8.65-0.39l-22.42-14.34
		c-2.33-1.49-2.23-3.72,0.23-4.99l13.46-6.98C237.27,289.08,241.14,289.26,243.47,290.75z"/>
</g>
<g>
	<path d="M151.02,296.24L221.03,341c1.08,0.69,1.91,2.29,1.86,3.58l0,0c-0.06,1.28-0.98,1.76-2.07,1.07l-70.02-44.76
		c-1.08-0.69-1.91-2.29-1.86-3.58l0,0C149.01,296.02,149.93,295.54,151.02,296.24z"/>
</g>
<g>
	<path class="st28" d="M94.46,241.96l21.28,13.61c3.26,2.08,5.76,6.9,5.58,10.76l-0.52,11.49c-0.17,3.86-2.96,5.3-6.21,3.22
		l-21.28-13.61c-3.26-2.08-5.76-6.9-5.58-10.76l0.52-11.49C88.42,241.32,91.2,239.88,94.46,241.96z"/>
</g>
<g>
	<path d="M154.56,284.38l70.02,44.76c1.08,0.69,1.91,2.29,1.86,3.58l0,0c-0.06,1.28-0.98,1.76-2.07,1.07l-70.02-44.76
		c-1.08-0.69-1.91-2.29-1.86-3.58l0,0C152.55,284.17,153.47,283.69,154.56,284.38z"/>
</g>
<linearGradient id="SVGID_21_" gradientUnits="userSpaceOnUse" x1="122.2368" y1="329.333" x2="231.0938" y2="294.686" gradientTransform="matrix(1 0 0 -1 15.7323 616.6772)">
	<stop  offset="0" style="stop-color:#201B1B"/>
	<stop  offset="1" style="stop-color:#585858;stop-opacity:0"/>
</linearGradient>
<path class="st29" d="M213.34,347.28c-0.52,4.67-13.48,8.57-42.84,5.33c-29.37-3.24-49.56-6.78-49.04-11.45
	c0.51-4.67,58.85-89.11,88.39-89.85C269.37,249.84,208.48,336.68,213.34,347.28z"/>
<path d="M202.33,235.79l50.91,29.81c5.72,3.35,5.69,8.72-0.07,12l-112.11,63.81c-5.76,3.28-15.07,3.22-20.78-0.13l-50.91-29.81
	c-5.72-3.35-5.69-8.72,0.07-12l112.11-63.81C187.3,232.38,196.61,232.44,202.33,235.79z"/>
<linearGradient id="SVGID_22_" gradientUnits="userSpaceOnUse" x1="-7.53" y1="689.726" x2="291.167" y2="141.4696" gradientTransform="matrix(0.8629 0.5053 0.8691 -0.4947 -369.4459 527.9329)">
	<stop  offset="0" style="stop-color:#313030"/>
	<stop  offset="1" style="stop-color:#000000;stop-opacity:0"/>
</linearGradient>
<path class="st30" d="M208.37,239.33l50.91,29.81c5.72,3.35,5.69,8.72-0.07,12l-113.28,64.48c-5.76,3.28-15.07,3.22-20.78-0.13
	l-50.91-29.81c-5.72-3.35-5.69-8.72,0.07-12l113.28-64.48C193.34,235.92,202.65,235.98,208.37,239.33z"/>
<g class="st31">
	
		<linearGradient id="SVGID_23_" gradientUnits="userSpaceOnUse" x1="37.0588" y1="549.2626" x2="99.1245" y2="555.3873" gradientTransform="matrix(0.8629 0.5053 0.8691 -0.4947 -376.3739 527.89)">
		<stop  offset="0" style="stop-color:#FFFFFF;stop-opacity:0.8"/>
		<stop  offset="1" style="stop-color:#EAEAEA"/>
	</linearGradient>
	<path class="st32" d="M201.44,239.28l45.74,26.78c5.72,3.35,5.69,8.72-0.07,12l-105.16,59.86c-5.76,3.28-15.07,3.22-20.78-0.13
		l-45.74-26.78c-5.72-3.35-5.69-8.72,0.07-12l105.16-59.86C186.41,235.88,195.72,235.94,201.44,239.28z"/>
</g>
<linearGradient id="SVGID_24_" gradientUnits="userSpaceOnUse" x1="529.877" y1="320.8622" x2="529.877" y2="142.5092" gradientTransform="matrix(1 0 0 -1 15.7323 616.6772)">
	<stop  offset="0" style="stop-color:#7B9A63"/>
	<stop  offset="1" style="stop-color:#7B9A63;stop-opacity:0"/>
</linearGradient>
<path class="st33" d="M529.79,295.1l13.32,59.69v33.4l18.32,93.08l-24.15,14.21l5.83-30.55l-5.83-23.45L529.79,295.1z"/>
<linearGradient id="SVGID_25_" gradientUnits="userSpaceOnUse" x1="466.5895" y1="311.6252" x2="466.5895" y2="133.2711" gradientTransform="matrix(1 0 0 -1 15.7323 616.6772)">
	<stop  offset="0" style="stop-color:#7B9A63"/>
	<stop  offset="1" style="stop-color:#7B9A63;stop-opacity:0"/>
</linearGradient>
<path class="st34" d="M466.5,304.34l13.32,59.69v33.4l18.32,93.08l-24.15,14.21l5.83-30.55l-5.83-23.45L466.5,304.34z"/>
<linearGradient id="SVGID_26_" gradientUnits="userSpaceOnUse" x1="434.946" y1="311.6252" x2="434.946" y2="133.2711" gradientTransform="matrix(1 0 0 -1 15.7323 616.6772)">
	<stop  offset="0" style="stop-color:#7B9A63"/>
	<stop  offset="1" style="stop-color:#7B9A63;stop-opacity:0"/>
</linearGradient>
<path class="st35" d="M434.86,304.34l13.32,59.69v33.4l18.32,93.08l-24.15,14.21l5.83-30.55l-5.83-23.45L434.86,304.34z"/>
<linearGradient id="SVGID_27_" gradientUnits="userSpaceOnUse" x1="562.5982" y1="254.2042" x2="544.4172" y2="115.9202" gradientTransform="matrix(1 0 0 -1 15.7323 616.6772)">
	<stop  offset="0" style="stop-color:#7B9A63"/>
	<stop  offset="1" style="stop-color:#7B9A63;stop-opacity:0"/>
</linearGradient>
<path class="st36" d="M575.63,361.56l1.04,47.21l-5.84,25.57l-0.49,73.36l-23.27,8.15l10.36-22.74l-0.92-18.62L575.63,361.56z"/>
<linearGradient id="SVGID_28_" gradientUnits="userSpaceOnUse" x1="524.7164" y1="236.8181" x2="522.5034" y2="97.8031" gradientTransform="matrix(1 0 0 -1 15.7323 616.6772)">
	<stop  offset="0" style="stop-color:#7B9A63"/>
	<stop  offset="1" style="stop-color:#7B9A63;stop-opacity:0"/>
</linearGradient>
<path class="st37" d="M549.15,379.44l-8.87,46.39l0.61,26.05l-11.99,72.38l18.33,11.37l-4.92-23.9l3.93-18.22L549.15,379.44z"/>
<linearGradient id="SVGID_29_" gradientUnits="userSpaceOnUse" x1="454.3897" y1="190.1192" x2="476.4817" y2="123.3762" gradientTransform="matrix(1 0 0 -1 15.7323 616.6772)">
	<stop  offset="0" style="stop-color:#7B9A63"/>
	<stop  offset="1" style="stop-color:#7B9A63;stop-opacity:0"/>
</linearGradient>
<path class="st38" d="M471.53,425.8l1.99,24.12l6.17,11.82l4.78,37.07l19-0.39l-9.6-9.51l-0.38-9.61L471.53,425.8z"/>
<linearGradient id="SVGID_30_" gradientUnits="userSpaceOnUse" x1="556.112" y1="319.4412" x2="556.112" y2="141.0872" gradientTransform="matrix(1 0 0 -1 15.7323 616.6772)">
	<stop  offset="0" style="stop-color:#7B9A63"/>
	<stop  offset="1" style="stop-color:#7B9A63;stop-opacity:0"/>
</linearGradient>
<path class="st39" d="M560.19,274.5l4.58,20.61l5.41,11.01l13.32,172.31l-13.32,2.13v-10.3v-41.21l-5.41-62.53L560.19,274.5z"/>
<linearGradient id="SVGID_31_" gradientUnits="userSpaceOnUse" x1="492.825" y1="310.2042" x2="492.825" y2="131.8502" gradientTransform="matrix(1 0 0 -1 15.7323 616.6772)">
	<stop  offset="0" style="stop-color:#7B9A63"/>
	<stop  offset="1" style="stop-color:#7B9A63;stop-opacity:0"/>
</linearGradient>
<path class="st40" d="M496.9,283.74l4.58,20.61l5.41,11.01l13.32,172.31l-13.32,2.13v-10.3v-41.21l-5.41-62.53L496.9,283.74z"/>
<linearGradient id="SVGID_32_" gradientUnits="userSpaceOnUse" x1="461.1815" y1="310.2042" x2="461.1815" y2="131.8502" gradientTransform="matrix(1 0 0 -1 15.7323 616.6772)">
	<stop  offset="0" style="stop-color:#7B9A63"/>
	<stop  offset="1" style="stop-color:#7B9A63;stop-opacity:0"/>
</linearGradient>
<path class="st41" d="M465.26,283.74l4.58,20.61l5.41,11.01l13.32,172.31l-13.32,2.13v-10.3v-41.21l-5.41-62.53L465.26,283.74z"/>
<linearGradient id="SVGID_33_" gradientUnits="userSpaceOnUse" x1="587.2963" y1="249.836" x2="569.1162" y2="111.552" gradientTransform="matrix(1 0 0 -1 15.7323 616.6772)">
	<stop  offset="0" style="stop-color:#7B9A63"/>
	<stop  offset="1" style="stop-color:#7B9A63;stop-opacity:0"/>
</linearGradient>
<path class="st42" d="M605.4,349.22l0.34,16.3l2.74,9.05l-18.64,133.46l-11.84,0.12l1.8-7.89l7.2-31.56l6.27-48.5L605.4,349.22z"/>
<linearGradient id="SVGID_34_" gradientUnits="userSpaceOnUse" x1="504.4296" y1="236.0336" x2="502.2177" y2="97.0176" gradientTransform="matrix(1 0 0 -1 15.7323 616.6772)">
	<stop  offset="0" style="stop-color:#7B9A63"/>
	<stop  offset="1" style="stop-color:#7B9A63;stop-opacity:0"/>
</linearGradient>
<path class="st43" d="M526.03,363.01l-3.05,16.02l-3.85,8.52l-6.8,134.23l10.01,1.82l-0.19-8.04l-0.76-32.14l2.9-48.71
	L526.03,363.01z"/>
<linearGradient id="SVGID_35_" gradientUnits="userSpaceOnUse" x1="434.6605" y1="182.9988" x2="456.7525" y2="116.2559" gradientTransform="matrix(1 0 0 -1 15.7323 616.6772)">
	<stop  offset="0" style="stop-color:#7B9A63"/>
	<stop  offset="1" style="stop-color:#7B9A63;stop-opacity:0"/>
</linearGradient>
<path class="st44" d="M447.11,425.32l0.7,8.32l-1.64,5.11l22.8,64l9.43-2.24l-1.9-3.65l-7.61-14.59l-7.88-23.35L447.11,425.32z"/>
<linearGradient id="SVGID_36_" gradientUnits="userSpaceOnUse" x1="546.8555" y1="255.4901" x2="546.8555" y2="77.1362" gradientTransform="matrix(1 0 0 -1 15.7323 616.6772)">
	<stop  offset="0" style="stop-color:#7B9A63"/>
	<stop  offset="1" style="stop-color:#7B9A63;stop-opacity:0"/>
</linearGradient>
<path class="st45" d="M550.93,325.3l-4.16-62.89l16.65,101.97l14.99,136.07h-31.64l8.74-99.48L550.93,325.3z"/>
<linearGradient id="SVGID_37_" gradientUnits="userSpaceOnUse" x1="483.5685" y1="246.2522" x2="483.5685" y2="67.8981" gradientTransform="matrix(1 0 0 -1 15.7323 616.6772)">
	<stop  offset="0" style="stop-color:#7B9A63"/>
	<stop  offset="1" style="stop-color:#7B9A63;stop-opacity:0"/>
</linearGradient>
<path class="st46" d="M487.64,334.54l-4.16-62.89l16.65,101.97l14.99,136.07h-31.64l8.74-99.48L487.64,334.54z"/>
<linearGradient id="SVGID_38_" gradientUnits="userSpaceOnUse" x1="451.9245" y1="246.2522" x2="451.9245" y2="67.8981" gradientTransform="matrix(1 0 0 -1 15.7323 616.6772)">
	<stop  offset="0" style="stop-color:#7B9A63"/>
	<stop  offset="1" style="stop-color:#7B9A63;stop-opacity:0"/>
</linearGradient>
<path class="st47" d="M456,334.54l-4.16-62.89l16.65,101.97l14.99,136.07h-31.64l8.74-99.48L456,334.54z"/>
<linearGradient id="SVGID_39_" gradientUnits="userSpaceOnUse" x1="566.4438" y1="202.1367" x2="548.2638" y2="63.8527" gradientTransform="matrix(1 0 0 -1 15.7323 616.6772)">
	<stop  offset="0" style="stop-color:#7B9A63"/>
	<stop  offset="1" style="stop-color:#7B9A63;stop-opacity:0"/>
</linearGradient>
<path class="st48" d="M588.55,387.08l7.4-48.63l-3.48,79.97l-10.87,105.9l-27.24-3.58l24.91-75.19L588.55,387.08z"/>
<linearGradient id="SVGID_40_" gradientUnits="userSpaceOnUse" x1="514.3791" y1="186.0164" x2="512.1661" y2="47.0004" gradientTransform="matrix(1 0 0 -1 15.7323 616.6772)">
	<stop  offset="0" style="stop-color:#7B9A63"/>
	<stop  offset="1" style="stop-color:#7B9A63;stop-opacity:0"/>
</linearGradient>
<path class="st49" d="M533.88,402.75l1.96-49l-10.58,79.33l-8.71,105.95l23.67,0.38l-8.37-77.69L533.88,402.75z"/>
<linearGradient id="SVGID_41_" gradientUnits="userSpaceOnUse" x1="454.2517" y1="162.9298" x2="476.3438" y2="96.1878" gradientTransform="matrix(1 0 0 -1 15.7323 616.6772)">
	<stop  offset="0" style="stop-color:#7B9A63"/>
	<stop  offset="1" style="stop-color:#7B9A63;stop-opacity:0"/>
</linearGradient>
<path class="st50" d="M462.78,441.23l-8.8-23.2l7.55,39.84l14.98,51.54l21.46-7.1l-24.31-33.26L462.78,441.23z"/>
<linearGradient id="SVGID_42_" gradientUnits="userSpaceOnUse" x1="572.3459" y1="319.4412" x2="572.3459" y2="141.0872" gradientTransform="matrix(1 0 0 -1 15.7323 616.6772)">
	<stop  offset="0" style="stop-color:#7B9A63"/>
	<stop  offset="1" style="stop-color:#7B9A63;stop-opacity:0"/>
</linearGradient>
<path class="st51" d="M572.26,297.24l14.99-21.67l12.07-10.66l-9.58,21.32l-4.58,29.13l7.49,61.46v50.81l11.24,47.96l-26.23,2.13
	v-20.25v-67.5L572.26,297.24z"/>
<linearGradient id="SVGID_43_" gradientUnits="userSpaceOnUse" x1="509.0585" y1="310.2042" x2="509.0585" y2="131.8502" gradientTransform="matrix(1 0 0 -1 15.7323 616.6772)">
	<stop  offset="0" style="stop-color:#7B9A63"/>
	<stop  offset="1" style="stop-color:#7B9A63;stop-opacity:0"/>
</linearGradient>
<path class="st52" d="M508.97,306.47l14.99-21.67l12.07-10.66l-9.58,21.32l-4.58,29.13l7.49,61.47v50.8l11.24,47.96l-26.23,2.13
	v-20.25v-67.5L508.97,306.47z"/>
<linearGradient id="SVGID_44_" gradientUnits="userSpaceOnUse" x1="477.415" y1="310.2042" x2="477.415" y2="131.8502" gradientTransform="matrix(1 0 0 -1 15.7323 616.6772)">
	<stop  offset="0" style="stop-color:#7B9A63"/>
	<stop  offset="1" style="stop-color:#7B9A63;stop-opacity:0"/>
</linearGradient>
<path class="st53" d="M477.33,306.47l14.99-21.67l12.07-10.66l-9.58,21.32l-4.58,29.13l7.49,61.47v50.8l11.24,47.96l-26.23,2.13
	v-20.25v-67.5L477.33,306.47z"/>
<linearGradient id="SVGID_45_" gradientUnits="userSpaceOnUse" x1="604.6669" y1="247.5521" x2="586.4869" y2="109.268" gradientTransform="matrix(1 0 0 -1 15.7323 616.6772)">
	<stop  offset="0" style="stop-color:#7B9A63"/>
	<stop  offset="1" style="stop-color:#7B9A63;stop-opacity:0"/>
</linearGradient>
<path class="st54" d="M611.81,368l16.69-14.9l12.26-6.79l-11.97,15.24l-9.03,21.79l-4.29,47.91l-8.88,38.9l1.3,38l-22.95-1.34
	l3.54-15.51l11.79-51.69L611.81,368z"/>
<linearGradient id="SVGID_46_" gradientUnits="userSpaceOnUse" x1="491.8151" y1="236.2338" x2="489.6021" y2="97.2178" gradientTransform="matrix(1 0 0 -1 15.7323 616.6772)">
	<stop  offset="0" style="stop-color:#7B9A63"/>
	<stop  offset="1" style="stop-color:#7B9A63;stop-opacity:0"/>
</linearGradient>
<path class="st55" d="M517.41,380.6l-11.61-17.08l-9.23-8.46l7.56,16.74l3.96,22.78l-4.48,47.85l0.93,39.62l-7.53,37.27l19.66,1.97
	l-0.37-15.79l-1.24-52.65L517.41,380.6z"/>
<linearGradient id="SVGID_47_" gradientUnits="userSpaceOnUse" x1="420.9008" y1="178.4447" x2="442.9928" y2="111.7018" gradientTransform="matrix(1 0 0 -1 15.7323 616.6772)">
	<stop  offset="0" style="stop-color:#7B9A63"/>
	<stop  offset="1" style="stop-color:#7B9A63;stop-opacity:0"/>
</linearGradient>
<path class="st56" d="M443.13,436.08l-14.17-4.31l-10.16-1.06l10.43,5.4l8.49,9.29l6.27,23.44l9.39,17.99l1.24,19.51l18.18-5.13
	l-3.74-7.17l-12.47-23.9L443.13,436.08z"/>
<linearGradient id="SVGID_48_" gradientUnits="userSpaceOnUse" x1="516.553" y1="145.3512" x2="516.553" y2="-55.7408" gradientTransform="matrix(1 0 0 -1 15.7323 616.6772)">
	<stop  offset="0" style="stop-color:#A57AA0"/>
	<stop  offset="1" style="stop-color:#2F052A"/>
</linearGradient>
<path class="st57" d="M442.35,471.33h179.87l-34.14,201.09H476.49L442.35,471.33z"/>
</svg>
